# Blender 4.3.0
# www.blender.org
mtllib cono.mtl
o ConoVFX
v 0.000000 -0.000001 -4.223645
v -0.000000 18.000000 -1.791395
v 1.616319 -0.000001 -3.902140
v 0.685537 18.000000 -1.655033
v 2.986568 -0.000001 -2.986568
v 1.266708 18.000000 -1.266708
v 3.902140 -0.000001 -1.616319
v 1.655033 18.000000 -0.685537
v 4.223645 -0.000001 0.000000
v 1.791395 18.000000 0.000000
v 3.902140 -0.000001 1.616319
v 1.655033 18.000000 0.685537
v 2.986568 -0.000001 2.986568
v 1.266708 18.000000 1.266708
v 1.616319 -0.000001 3.902140
v 0.685537 18.000000 1.655033
v 0.000000 -0.000001 4.223645
v -0.000000 18.000000 1.791395
v -1.616319 -0.000001 3.902140
v -0.685537 18.000000 1.655033
v -2.986568 -0.000001 2.986568
v -1.266708 18.000000 1.266708
v -3.902140 -0.000001 1.616319
v -1.655033 18.000000 0.685537
v -4.223645 -0.000001 0.000000
v -1.791395 18.000000 0.000000
v -3.902140 -0.000001 -1.616319
v -1.655033 18.000000 -0.685537
v -2.986568 -0.000001 -2.986568
v -1.266708 18.000000 -1.266708
v -1.616319 -0.000001 -3.902140
v -0.685537 18.000000 -1.655033
v -0.000000 2.999999 -3.530913
v 0.000000 6.000000 -2.976135
v 0.000000 9.000000 -2.613541
v 0.000000 12.000000 -2.280582
v 0.000000 14.999999 -2.000000
v 0.765367 14.999999 -1.847759
v 0.872741 12.000000 -2.106983
v 1.000159 9.000000 -2.414597
v 1.138918 6.000000 -2.749591
v 1.351222 2.999999 -3.262139
v 1.414214 14.999999 -1.414214
v 1.612615 12.000000 -1.612615
v 1.848053 9.000000 -1.848053
v 2.104445 6.000000 -2.104445
v 2.496733 2.999999 -2.496733
v 1.847759 14.999999 -0.765367
v 2.106983 12.000000 -0.872741
v 2.414597 9.000000 -1.000159
v 2.749591 6.000000 -1.138918
v 3.262139 2.999999 -1.351222
v 2.000000 14.999999 0.000000
v 2.280582 12.000000 -0.000000
v 2.613541 9.000000 0.000000
v 2.976135 6.000000 0.000000
v 3.530913 2.999999 0.000000
v 1.847759 14.999999 0.765367
v 2.106983 12.000000 0.872741
v 2.414597 9.000000 1.000159
v 2.749591 6.000000 1.138918
v 3.262139 2.999999 1.351222
v 1.414214 14.999999 1.414214
v 1.612615 12.000000 1.612615
v 1.848053 9.000000 1.848053
v 2.104445 6.000000 2.104445
v 2.496733 2.999999 2.496733
v 0.765367 14.999999 1.847759
v 0.872741 12.000000 2.106983
v 1.000159 9.000000 2.414597
v 1.138918 6.000000 2.749591
v 1.351222 2.999999 3.262139
v 0.000000 14.999999 2.000000
v 0.000000 12.000000 2.280582
v 0.000000 9.000000 2.613541
v 0.000000 6.000000 2.976135
v -0.000000 2.999999 3.530913
v -0.765367 14.999999 1.847759
v -0.872741 12.000000 2.106983
v -1.000159 9.000000 2.414597
v -1.138918 6.000000 2.749591
v -1.351222 2.999999 3.262139
v -1.414214 14.999999 1.414214
v -1.612615 12.000000 1.612615
v -1.848053 9.000000 1.848053
v -2.104445 6.000000 2.104445
v -2.496733 2.999999 2.496733
v -1.847759 14.999999 0.765367
v -2.106983 12.000000 0.872741
v -2.414597 9.000000 1.000159
v -2.749591 6.000000 1.138918
v -3.262139 2.999999 1.351222
v -2.000000 14.999999 0.000000
v -2.280582 12.000000 -0.000000
v -2.613541 9.000000 0.000000
v -2.976135 6.000000 0.000000
v -3.530913 2.999999 0.000000
v -1.847759 14.999999 -0.765367
v -2.106983 12.000000 -0.872741
v -2.414597 9.000000 -1.000159
v -2.749591 6.000000 -1.138918
v -3.262139 2.999999 -1.351222
v -1.414214 14.999999 -1.414214
v -1.612615 12.000000 -1.612615
v -1.848053 9.000000 -1.848053
v -2.104445 6.000000 -2.104445
v -2.496733 2.999999 -2.496733
v -0.765367 14.999999 -1.847759
v -0.872741 12.000000 -2.106983
v -1.000159 9.000000 -2.414597
v -1.138918 6.000000 -2.749591
v -1.351222 2.999999 -3.262139
v 1.483771 1.499999 -3.582139
v 2.741651 1.499999 -2.741651
v 3.582139 1.499999 -1.483771
v 3.877279 1.499999 0.000000
v 3.582139 1.499999 1.483771
v 2.741651 1.499999 2.741651
v 1.483771 1.499999 3.582139
v 0.000000 1.499999 3.877279
v -1.483771 1.499999 3.582139
v -2.741651 1.499999 2.741651
v -3.582139 1.499999 1.483771
v -3.877279 1.499999 0.000000
v -3.582139 1.499999 -1.483771
v -2.741651 1.499999 -2.741651
v -1.483771 1.499999 -3.582139
v 0.000000 1.499999 -3.877279
v 0.000000 4.499999 -3.253524
v 1.245070 4.499999 -3.005865
v 2.300589 4.499999 -2.300589
v 3.005865 4.499999 -1.245070
v 3.253524 4.499999 0.000000
v 3.005865 4.499999 1.245070
v 2.300589 4.499999 2.300589
v 1.245070 4.499999 3.005865
v 0.000000 4.499999 3.253524
v -1.245070 4.499999 3.005865
v -2.300589 4.499999 2.300589
v -3.005865 4.499999 1.245070
v -3.253524 4.499999 0.000000
v -3.005865 4.499999 -1.245070
v -2.300589 4.499999 -2.300589
v -1.245070 4.499999 -3.005865
v 0.000000 7.500000 -2.794838
v 1.069538 7.500000 -2.582094
v 1.976249 7.500000 -1.976249
v 2.582094 7.500000 -1.069538
v 2.794838 7.500000 0.000000
v 2.582094 7.500000 1.069538
v 1.976249 7.500000 1.976249
v 1.069538 7.500000 2.582094
v 0.000000 7.500000 2.794838
v -1.069538 7.500000 2.582094
v -1.976249 7.500000 1.976249
v -2.582094 7.500000 1.069538
v -2.794838 7.500000 0.000000
v -2.582094 7.500000 -1.069538
v -1.976249 7.500000 -1.976249
v -1.069538 7.500000 -2.582094
v 0.000000 10.500000 -2.447062
v 0.936450 10.500000 -2.260790
v 1.730334 10.500000 -1.730334
v 2.260790 10.500000 -0.936450
v 2.447062 10.500000 -0.000000
v 2.260790 10.500000 0.936450
v 1.730334 10.500000 1.730334
v 0.936450 10.500000 2.260790
v 0.000000 10.500000 2.447062
v -0.936450 10.500000 2.260790
v -1.730334 10.500000 1.730334
v -2.260790 10.500000 0.936450
v -2.447062 10.500000 -0.000000
v -2.260790 10.500000 -0.936450
v -1.730334 10.500000 -1.730334
v -0.936450 10.500000 -2.260790
v 0.000000 13.499999 -2.140291
v 0.819054 13.499999 -1.977371
v 1.513414 13.499999 -1.513414
v 1.977371 13.499999 -0.819054
v 2.140291 13.499999 -0.000000
v 1.977371 13.499999 0.819054
v 1.513414 13.499999 1.513414
v 0.819054 13.499999 1.977371
v 0.000000 13.499999 2.140291
v -0.819054 13.499999 1.977371
v -1.513414 13.499999 1.513414
v -1.977371 13.499999 0.819054
v -2.140291 13.499999 -0.000000
v -1.977371 13.499999 -0.819054
v -1.513414 13.499999 -1.513414
v -0.819054 13.499999 -1.977371
v -0.000000 16.500000 -1.895698
v 0.725452 16.500000 -1.751396
v 1.340461 16.500000 -1.340461
v 1.751396 16.500000 -0.725452
v 1.895698 16.500000 0.000000
v 1.751396 16.500000 0.725452
v 1.340461 16.500000 1.340461
v 0.725452 16.500000 1.751396
v -0.000000 16.500000 1.895698
v -0.725452 16.500000 1.751396
v -1.340461 16.500000 1.340461
v -1.751396 16.500000 0.725452
v -1.895698 16.500000 0.000000
v -1.751396 16.500000 -0.725452
v -1.340461 16.500000 -1.340461
v -0.725452 16.500000 -1.751396
vn 0.1946 0.0680 -0.9785
vn 0.5543 0.0680 -0.8295
vn 0.8295 0.0680 -0.5543
vn 0.9785 0.0680 -0.1946
vn 0.9785 0.0680 0.1946
vn 0.8295 0.0680 0.5543
vn 0.5543 0.0680 0.8295
vn 0.1946 0.0680 0.9785
vn -0.1946 0.0680 0.9785
vn -0.5543 0.0680 0.8295
vn -0.8295 0.0680 0.5543
vn -0.9785 0.0680 0.1946
vn -0.9785 0.0680 -0.1946
vn -0.8295 0.0680 -0.5543
vn -0.5543 0.0680 -0.8295
vn -0.1946 0.0680 -0.9785
vn -0.1903 0.2209 -0.9566
vn -0.1920 0.1785 -0.9650
vn -0.1937 0.1177 -0.9740
vn -0.1939 0.1082 -0.9750
vn -0.1943 0.0913 -0.9767
vn -0.5418 0.2209 -0.8109
vn -0.5467 0.1785 -0.8181
vn -0.5517 0.1177 -0.8257
vn -0.5523 0.1082 -0.8266
vn -0.5532 0.0913 -0.8280
vn -0.8109 0.2209 -0.5418
vn -0.8181 0.1785 -0.5467
vn -0.8257 0.1177 -0.5517
vn -0.8266 0.1082 -0.5523
vn -0.8280 0.0913 -0.5532
vn -0.9566 0.2209 -0.1903
vn -0.9650 0.1785 -0.1920
vn -0.9740 0.1177 -0.1937
vn -0.9750 0.1082 -0.1939
vn -0.9767 0.0913 -0.1943
vn -0.9566 0.2209 0.1903
vn -0.9650 0.1785 0.1920
vn -0.9740 0.1177 0.1937
vn -0.9750 0.1082 0.1939
vn -0.9767 0.0913 0.1943
vn -0.8109 0.2209 0.5418
vn -0.8181 0.1785 0.5467
vn -0.8257 0.1177 0.5517
vn -0.8266 0.1082 0.5523
vn -0.8280 0.0913 0.5532
vn -0.5418 0.2209 0.8109
vn -0.5467 0.1785 0.8181
vn -0.5517 0.1177 0.8257
vn -0.5523 0.1082 0.8266
vn -0.5532 0.0913 0.8280
vn -0.1903 0.2209 0.9566
vn -0.1920 0.1785 0.9650
vn -0.1937 0.1177 0.9740
vn -0.1939 0.1082 0.9750
vn -0.1943 0.0913 0.9767
vn 0.1903 0.2209 0.9566
vn 0.1920 0.1785 0.9650
vn 0.1937 0.1177 0.9740
vn 0.1939 0.1082 0.9750
vn 0.1943 0.0913 0.9767
vn 0.5418 0.2209 0.8109
vn 0.5467 0.1785 0.8181
vn 0.5517 0.1177 0.8257
vn 0.5523 0.1082 0.8266
vn 0.5532 0.0913 0.8280
vn 0.8109 0.2209 0.5418
vn 0.8181 0.1785 0.5467
vn 0.8257 0.1177 0.5517
vn 0.8266 0.1082 0.5523
vn 0.8280 0.0913 0.5532
vn 0.9566 0.2209 0.1903
vn 0.9650 0.1785 0.1920
vn 0.9740 0.1177 0.1937
vn 0.9750 0.1082 0.1939
vn 0.9767 0.0913 0.1943
vn 0.9566 0.2209 -0.1903
vn 0.9650 0.1785 -0.1920
vn 0.9740 0.1177 -0.1937
vn 0.9750 0.1082 -0.1939
vn 0.9767 0.0913 -0.1943
vn 0.8109 0.2209 -0.5418
vn 0.8181 0.1785 -0.5467
vn 0.8257 0.1177 -0.5517
vn 0.8266 0.1082 -0.5523
vn 0.8280 0.0913 -0.5532
vn 0.5418 0.2209 -0.8109
vn 0.5467 0.1785 -0.8181
vn 0.5517 0.1177 -0.8257
vn 0.5523 0.1082 -0.8266
vn 0.5532 0.0913 -0.8280
vn 0.1903 0.2209 -0.9566
vn 0.1920 0.1785 -0.9650
vn 0.1937 0.1177 -0.9740
vn 0.1939 0.1082 -0.9750
vn 0.1943 0.0913 -0.9767
vt 1.000000 0.958333
vt 1.000000 1.000000
vt 0.937500 1.000000
vt 0.937500 0.958333
vt 0.875000 1.000000
vt 0.875000 0.958333
vt 0.812500 1.000000
vt 0.812500 0.958333
vt 0.750000 1.000000
vt 0.750000 0.958333
vt 0.687500 1.000000
vt 0.687500 0.958333
vt 0.625000 1.000000
vt 0.625000 0.958333
vt 0.562500 1.000000
vt 0.562500 0.958333
vt 0.500000 1.000000
vt 0.500000 0.958333
vt 0.437500 1.000000
vt 0.437500 0.958333
vt 0.375000 1.000000
vt 0.375000 0.958333
vt 0.312500 1.000000
vt 0.312500 0.958333
vt 0.250000 1.000000
vt 0.250000 0.958333
vt 0.187500 1.000000
vt 0.187500 0.958333
vt 0.125000 1.000000
vt 0.125000 0.958333
vt 0.062500 1.000000
vt 0.062500 0.958333
vt 0.000000 1.000000
vt 0.000000 0.958333
vt 0.062500 0.541667
vt 0.062500 0.583333
vt 0.000000 0.583333
vt 0.000000 0.541667
vt 0.062500 0.625000
vt 0.062500 0.666667
vt 0.000000 0.666667
vt 0.000000 0.625000
vt 0.062500 0.708333
vt 0.062500 0.750000
vt 0.000000 0.750000
vt 0.000000 0.708333
vt 0.062500 0.791667
vt 0.062500 0.833333
vt 0.000000 0.833333
vt 0.000000 0.791667
vt 0.062500 0.875000
vt 0.062500 0.916667
vt 0.000000 0.916667
vt 0.000000 0.875000
vt 0.125000 0.541667
vt 0.125000 0.583333
vt 0.125000 0.625000
vt 0.125000 0.666667
vt 0.125000 0.708333
vt 0.125000 0.750000
vt 0.125000 0.791667
vt 0.125000 0.833333
vt 0.125000 0.875000
vt 0.125000 0.916667
vt 0.187500 0.541667
vt 0.187500 0.583333
vt 0.187500 0.625000
vt 0.187500 0.666667
vt 0.187500 0.708333
vt 0.187500 0.750000
vt 0.187500 0.791667
vt 0.187500 0.833333
vt 0.187500 0.875000
vt 0.187500 0.916667
vt 0.250000 0.541667
vt 0.250000 0.583333
vt 0.250000 0.625000
vt 0.250000 0.666667
vt 0.250000 0.708333
vt 0.250000 0.750000
vt 0.250000 0.791667
vt 0.250000 0.833333
vt 0.250000 0.875000
vt 0.250000 0.916667
vt 0.312500 0.541667
vt 0.312500 0.583333
vt 0.312500 0.625000
vt 0.312500 0.666667
vt 0.312500 0.708333
vt 0.312500 0.750000
vt 0.312500 0.791667
vt 0.312500 0.833333
vt 0.312500 0.875000
vt 0.312500 0.916667
vt 0.375000 0.541667
vt 0.375000 0.583333
vt 0.375000 0.625000
vt 0.375000 0.666667
vt 0.375000 0.708333
vt 0.375000 0.750000
vt 0.375000 0.791667
vt 0.375000 0.833333
vt 0.375000 0.875000
vt 0.375000 0.916667
vt 0.437500 0.541667
vt 0.437500 0.583333
vt 0.437500 0.625000
vt 0.437500 0.666667
vt 0.437500 0.708333
vt 0.437500 0.750000
vt 0.437500 0.791667
vt 0.437500 0.833333
vt 0.437500 0.875000
vt 0.437500 0.916667
vt 0.500000 0.541667
vt 0.500000 0.583333
vt 0.500000 0.625000
vt 0.500000 0.666667
vt 0.500000 0.708333
vt 0.500000 0.750000
vt 0.500000 0.791667
vt 0.500000 0.833333
vt 0.500000 0.875000
vt 0.500000 0.916667
vt 0.562500 0.541667
vt 0.562500 0.583333
vt 0.562500 0.625000
vt 0.562500 0.666667
vt 0.562500 0.708333
vt 0.562500 0.750000
vt 0.562500 0.791667
vt 0.562500 0.833333
vt 0.562500 0.875000
vt 0.562500 0.916667
vt 0.625000 0.541667
vt 0.625000 0.583333
vt 0.625000 0.625000
vt 0.625000 0.666667
vt 0.625000 0.708333
vt 0.625000 0.750000
vt 0.625000 0.791667
vt 0.625000 0.833333
vt 0.625000 0.875000
vt 0.625000 0.916667
vt 0.687500 0.541667
vt 0.687500 0.583333
vt 0.687500 0.625000
vt 0.687500 0.666667
vt 0.687500 0.708333
vt 0.687500 0.750000
vt 0.687500 0.791667
vt 0.687500 0.833333
vt 0.687500 0.875000
vt 0.687500 0.916667
vt 0.750000 0.541667
vt 0.750000 0.583333
vt 0.750000 0.625000
vt 0.750000 0.666667
vt 0.750000 0.708333
vt 0.750000 0.750000
vt 0.750000 0.791667
vt 0.750000 0.833333
vt 0.750000 0.875000
vt 0.750000 0.916667
vt 0.812500 0.541667
vt 0.812500 0.583333
vt 0.812500 0.625000
vt 0.812500 0.666667
vt 0.812500 0.708333
vt 0.812500 0.750000
vt 0.812500 0.791667
vt 0.812500 0.833333
vt 0.812500 0.875000
vt 0.812500 0.916667
vt 0.875000 0.541667
vt 0.875000 0.583333
vt 0.875000 0.625000
vt 0.875000 0.666667
vt 0.875000 0.708333
vt 0.875000 0.750000
vt 0.875000 0.791667
vt 0.875000 0.833333
vt 0.875000 0.875000
vt 0.875000 0.916667
vt 0.937500 0.541667
vt 0.937500 0.583333
vt 0.937500 0.625000
vt 0.937500 0.666667
vt 0.937500 0.708333
vt 0.937500 0.750000
vt 0.937500 0.791667
vt 0.937500 0.833333
vt 0.937500 0.875000
vt 0.937500 0.916667
vt 1.000000 0.541667
vt 1.000000 0.583333
vt 1.000000 0.625000
vt 1.000000 0.666667
vt 1.000000 0.708333
vt 1.000000 0.750000
vt 1.000000 0.791667
vt 1.000000 0.833333
vt 1.000000 0.875000
vt 1.000000 0.916667
vt 1.000000 0.500000
vt 0.937500 0.500000
vt 0.875000 0.500000
vt 0.812500 0.500000
vt 0.750000 0.500000
vt 0.687500 0.500000
vt 0.625000 0.500000
vt 0.562500 0.500000
vt 0.500000 0.500000
vt 0.437500 0.500000
vt 0.375000 0.500000
vt 0.312500 0.500000
vt 0.250000 0.500000
vt 0.187500 0.500000
vt 0.125000 0.500000
vt 0.062500 0.500000
vt 0.000000 0.500000
s 0
f 193/1/1 2/2/1 4/3/1 194/4/1
f 194/4/2 4/3/2 6/5/2 195/6/2
f 195/6/3 6/5/3 8/7/3 196/8/3
f 196/8/4 8/7/4 10/9/4 197/10/4
f 197/10/5 10/9/5 12/11/5 198/12/5
f 198/12/6 12/11/6 14/13/6 199/14/6
f 199/14/7 14/13/7 16/15/7 200/16/7
f 200/16/8 16/15/8 18/17/8 201/18/8
f 201/18/9 18/17/9 20/19/9 202/20/9
f 202/20/10 20/19/10 22/21/10 203/22/10
f 203/22/11 22/21/11 24/23/11 204/24/11
f 204/24/12 24/23/12 26/25/12 205/26/12
f 205/26/13 26/25/13 28/27/13 206/28/13
f 206/28/14 28/27/14 30/29/14 207/30/14
f 207/30/15 30/29/15 32/31/15 208/32/15
f 208/32/16 32/31/16 2/33/16 193/34/16
f 127/35/17 112/36/17 33/37/17 128/38/17
f 144/39/18 111/40/18 34/41/18 129/42/18
f 160/43/19 110/44/19 35/45/19 145/46/19
f 176/47/20 109/48/20 36/49/20 161/50/20
f 192/51/21 108/52/21 37/53/21 177/54/21
f 126/55/22 107/56/22 112/36/22 127/35/22
f 143/57/23 106/58/23 111/40/23 144/39/23
f 159/59/24 105/60/24 110/44/24 160/43/24
f 175/61/25 104/62/25 109/48/25 176/47/25
f 191/63/26 103/64/26 108/52/26 192/51/26
f 125/65/27 102/66/27 107/56/27 126/55/27
f 142/67/28 101/68/28 106/58/28 143/57/28
f 158/69/29 100/70/29 105/60/29 159/59/29
f 174/71/30 99/72/30 104/62/30 175/61/30
f 190/73/31 98/74/31 103/64/31 191/63/31
f 124/75/32 97/76/32 102/66/32 125/65/32
f 141/77/33 96/78/33 101/68/33 142/67/33
f 157/79/34 95/80/34 100/70/34 158/69/34
f 173/81/35 94/82/35 99/72/35 174/71/35
f 189/83/36 93/84/36 98/74/36 190/73/36
f 123/85/37 92/86/37 97/76/37 124/75/37
f 140/87/38 91/88/38 96/78/38 141/77/38
f 156/89/39 90/90/39 95/80/39 157/79/39
f 172/91/40 89/92/40 94/82/40 173/81/40
f 188/93/41 88/94/41 93/84/41 189/83/41
f 122/95/42 87/96/42 92/86/42 123/85/42
f 139/97/43 86/98/43 91/88/43 140/87/43
f 155/99/44 85/100/44 90/90/44 156/89/44
f 171/101/45 84/102/45 89/92/45 172/91/45
f 187/103/46 83/104/46 88/94/46 188/93/46
f 121/105/47 82/106/47 87/96/47 122/95/47
f 138/107/48 81/108/48 86/98/48 139/97/48
f 154/109/49 80/110/49 85/100/49 155/99/49
f 170/111/50 79/112/50 84/102/50 171/101/50
f 186/113/51 78/114/51 83/104/51 187/103/51
f 120/115/52 77/116/52 82/106/52 121/105/52
f 137/117/53 76/118/53 81/108/53 138/107/53
f 153/119/54 75/120/54 80/110/54 154/109/54
f 169/121/55 74/122/55 79/112/55 170/111/55
f 185/123/56 73/124/56 78/114/56 186/113/56
f 119/125/57 72/126/57 77/116/57 120/115/57
f 136/127/58 71/128/58 76/118/58 137/117/58
f 152/129/59 70/130/59 75/120/59 153/119/59
f 168/131/60 69/132/60 74/122/60 169/121/60
f 184/133/61 68/134/61 73/124/61 185/123/61
f 118/135/62 67/136/62 72/126/62 119/125/62
f 135/137/63 66/138/63 71/128/63 136/127/63
f 151/139/64 65/140/64 70/130/64 152/129/64
f 167/141/65 64/142/65 69/132/65 168/131/65
f 183/143/66 63/144/66 68/134/66 184/133/66
f 117/145/67 62/146/67 67/136/67 118/135/67
f 134/147/68 61/148/68 66/138/68 135/137/68
f 150/149/69 60/150/69 65/140/69 151/139/69
f 166/151/70 59/152/70 64/142/70 167/141/70
f 182/153/71 58/154/71 63/144/71 183/143/71
f 116/155/72 57/156/72 62/146/72 117/145/72
f 133/157/73 56/158/73 61/148/73 134/147/73
f 149/159/74 55/160/74 60/150/74 150/149/74
f 165/161/75 54/162/75 59/152/75 166/151/75
f 181/163/76 53/164/76 58/154/76 182/153/76
f 115/165/77 52/166/77 57/156/77 116/155/77
f 132/167/78 51/168/78 56/158/78 133/157/78
f 148/169/79 50/170/79 55/160/79 149/159/79
f 164/171/80 49/172/80 54/162/80 165/161/80
f 180/173/81 48/174/81 53/164/81 181/163/81
f 114/175/82 47/176/82 52/166/82 115/165/82
f 131/177/83 46/178/83 51/168/83 132/167/83
f 147/179/84 45/180/84 50/170/84 148/169/84
f 163/181/85 44/182/85 49/172/85 164/171/85
f 179/183/86 43/184/86 48/174/86 180/173/86
f 113/185/87 42/186/87 47/176/87 114/175/87
f 130/187/88 41/188/88 46/178/88 131/177/88
f 146/189/89 40/190/89 45/180/89 147/179/89
f 162/191/90 39/192/90 44/182/90 163/181/90
f 178/193/91 38/194/91 43/184/91 179/183/91
f 128/195/92 33/196/92 42/186/92 113/185/92
f 129/197/93 34/198/93 41/188/93 130/187/93
f 145/199/94 35/200/94 40/190/94 146/189/94
f 161/201/95 36/202/95 39/192/95 162/191/95
f 177/203/96 37/204/96 38/194/96 178/193/96
f 1/205/92 128/195/92 113/185/92 3/206/92
f 3/206/87 113/185/87 114/175/87 5/207/87
f 5/207/82 114/175/82 115/165/82 7/208/82
f 7/208/77 115/165/77 116/155/77 9/209/77
f 9/209/72 116/155/72 117/145/72 11/210/72
f 11/210/67 117/145/67 118/135/67 13/211/67
f 13/211/62 118/135/62 119/125/62 15/212/62
f 15/212/57 119/125/57 120/115/57 17/213/57
f 17/213/52 120/115/52 121/105/52 19/214/52
f 19/214/47 121/105/47 122/95/47 21/215/47
f 21/215/42 122/95/42 123/85/42 23/216/42
f 23/216/37 123/85/37 124/75/37 25/217/37
f 25/217/32 124/75/32 125/65/32 27/218/32
f 27/218/27 125/65/27 126/55/27 29/219/27
f 29/219/22 126/55/22 127/35/22 31/220/22
f 31/220/17 127/35/17 128/38/17 1/221/17
f 33/196/93 129/197/93 130/187/93 42/186/93
f 42/186/88 130/187/88 131/177/88 47/176/88
f 47/176/83 131/177/83 132/167/83 52/166/83
f 52/166/78 132/167/78 133/157/78 57/156/78
f 57/156/73 133/157/73 134/147/73 62/146/73
f 62/146/68 134/147/68 135/137/68 67/136/68
f 67/136/63 135/137/63 136/127/63 72/126/63
f 72/126/58 136/127/58 137/117/58 77/116/58
f 77/116/53 137/117/53 138/107/53 82/106/53
f 82/106/48 138/107/48 139/97/48 87/96/48
f 87/96/43 139/97/43 140/87/43 92/86/43
f 92/86/38 140/87/38 141/77/38 97/76/38
f 97/76/33 141/77/33 142/67/33 102/66/33
f 102/66/28 142/67/28 143/57/28 107/56/28
f 107/56/23 143/57/23 144/39/23 112/36/23
f 112/36/18 144/39/18 129/42/18 33/37/18
f 34/198/94 145/199/94 146/189/94 41/188/94
f 41/188/89 146/189/89 147/179/89 46/178/89
f 46/178/84 147/179/84 148/169/84 51/168/84
f 51/168/79 148/169/79 149/159/79 56/158/79
f 56/158/74 149/159/74 150/149/74 61/148/74
f 61/148/69 150/149/69 151/139/69 66/138/69
f 66/138/64 151/139/64 152/129/64 71/128/64
f 71/128/59 152/129/59 153/119/59 76/118/59
f 76/118/54 153/119/54 154/109/54 81/108/54
f 81/108/49 154/109/49 155/99/49 86/98/49
f 86/98/44 155/99/44 156/89/44 91/88/44
f 91/88/39 156/89/39 157/79/39 96/78/39
f 96/78/34 157/79/34 158/69/34 101/68/34
f 101/68/29 158/69/29 159/59/29 106/58/29
f 106/58/24 159/59/24 160/43/24 111/40/24
f 111/40/19 160/43/19 145/46/19 34/41/19
f 35/200/95 161/201/95 162/191/95 40/190/95
f 40/190/90 162/191/90 163/181/90 45/180/90
f 45/180/85 163/181/85 164/171/85 50/170/85
f 50/170/80 164/171/80 165/161/80 55/160/80
f 55/160/75 165/161/75 166/151/75 60/150/75
f 60/150/70 166/151/70 167/141/70 65/140/70
f 65/140/65 167/141/65 168/131/65 70/130/65
f 70/130/60 168/131/60 169/121/60 75/120/60
f 75/120/55 169/121/55 170/111/55 80/110/55
f 80/110/50 170/111/50 171/101/50 85/100/50
f 85/100/45 171/101/45 172/91/45 90/90/45
f 90/90/40 172/91/40 173/81/40 95/80/40
f 95/80/35 173/81/35 174/71/35 100/70/35
f 100/70/30 174/71/30 175/61/30 105/60/30
f 105/60/25 175/61/25 176/47/25 110/44/25
f 110/44/20 176/47/20 161/50/20 35/45/20
f 36/202/96 177/203/96 178/193/96 39/192/96
f 39/192/91 178/193/91 179/183/91 44/182/91
f 44/182/86 179/183/86 180/173/86 49/172/86
f 49/172/81 180/173/81 181/163/81 54/162/81
f 54/162/76 181/163/76 182/153/76 59/152/76
f 59/152/71 182/153/71 183/143/71 64/142/71
f 64/142/66 183/143/66 184/133/66 69/132/66
f 69/132/61 184/133/61 185/123/61 74/122/61
f 74/122/56 185/123/56 186/113/56 79/112/56
f 79/112/51 186/113/51 187/103/51 84/102/51
f 84/102/46 187/103/46 188/93/46 89/92/46
f 89/92/41 188/93/41 189/83/41 94/82/41
f 94/82/36 189/83/36 190/73/36 99/72/36
f 99/72/31 190/73/31 191/63/31 104/62/31
f 104/62/26 191/63/26 192/51/26 109/48/26
f 109/48/21 192/51/21 177/54/21 36/49/21
f 108/52/16 208/32/16 193/34/16 37/53/16
f 103/64/15 207/30/15 208/32/15 108/52/15
f 98/74/14 206/28/14 207/30/14 103/64/14
f 93/84/13 205/26/13 206/28/13 98/74/13
f 88/94/12 204/24/12 205/26/12 93/84/12
f 83/104/11 203/22/11 204/24/11 88/94/11
f 78/114/10 202/20/10 203/22/10 83/104/10
f 73/124/9 201/18/9 202/20/9 78/114/9
f 68/134/8 200/16/8 201/18/8 73/124/8
f 63/144/7 199/14/7 200/16/7 68/134/7
f 58/154/6 198/12/6 199/14/6 63/144/6
f 53/164/5 197/10/5 198/12/5 58/154/5
f 48/174/4 196/8/4 197/10/4 53/164/4
f 43/184/3 195/6/3 196/8/3 48/174/3
f 38/194/2 194/4/2 195/6/2 43/184/2
f 37/204/1 193/1/1 194/4/1 38/194/1
